<?xml version="1.0" encoding="iso-8859-1"?>
<!-- Generator: Adobe Illustrator 17.1.0, SVG Export Plug-In . SVG Version: 6.00 Build 0)  -->
<!DOCTYPE svg PUBLIC "-//W3C//DTD SVG 1.1//EN" "http://www.w3.org/Graphics/SVG/1.1/DTD/svg11.dtd">
<svg version="1.1" id="Capa_1" xmlns="http://www.w3.org/2000/svg" xmlns:xlink="http://www.w3.org/1999/xlink" x="0px" y="0px"
	 viewBox="0 0 413.674 413.674" style="enable-background:new 0 0 413.674 413.674;" xml:space="preserve">
<path fill="#fff" d="M404.764,190.449l-55.329-32.921c-8.307-4.942-19.046-2.216-23.987,6.091c-4.942,8.306-2.215,19.045,6.091,23.987
	l2.908,1.73H108.199v-2.098c0-8.284-6.716-15-15-15c-5.056,0-9.518,2.51-12.236,6.343l-45.592-31.789
	c-10.193-7.107-24.218-4.605-31.326,5.587c-7.107,10.193-4.605,24.218,5.587,31.326l32.359,22.563L9.21,230.271
	c-10.026,7.341-12.203,21.42-4.862,31.446c4.407,6.02,11.242,9.21,18.172,9.209c4.612,0,9.268-1.414,13.274-4.348l44.476-32.565
	c2.606,4.435,7.413,7.421,12.929,7.421c8.284,0,15-6.716,15-15v-2.098H334.3l-3.086,1.928c-8.196,5.122-10.689,15.918-5.567,24.114
	c3.319,5.313,9.022,8.229,14.857,8.229c3.167,0,6.373-0.859,9.257-2.661l55.336-34.575c5.438-3.396,8.645-9.211,8.576-15.556
	C413.605,199.473,410.275,193.728,404.764,190.449z"/>
<g>
</g>
<g>
</g>
<g>
</g>
<g>
</g>
<g>
</g>
<g>
</g>
<g>
</g>
<g>
</g>
<g>
</g>
<g>
</g>
<g>
</g>
<g>
</g>
<g>
</g>
<g>
</g>
<g>
</g>
</svg>
